<svg width="1219" height="820" viewBox="0 0 1219 820" fill="none" xmlns="http://www.w3.org/2000/svg">
<path d="M592.054 819.369C581.396 819.34 570.71 819.787 560.087 819.16C547.072 818.392 534.115 816.687 521.124 815.476C518.314 815.214 515.457 815.475 512.643 815.247C500.446 814.254 488.234 813.376 476.071 812.06C463.64 810.715 451.237 809.061 438.865 807.248C430.207 805.98 421.62 804.218 413.001 802.678C399.061 800.188 385.062 797.981 371.199 795.117C361.365 793.085 351.714 790.163 341.979 787.646C333.675 785.5 325.252 783.733 317.089 781.145C300.783 775.977 284.589 770.448 268.407 764.9C255.836 760.59 243.246 756.3 230.863 751.489C220.426 747.434 210.154 742.898 200.034 738.102C190.234 733.458 180.465 728.644 171.14 723.132C155.506 713.89 139.707 704.773 124.961 694.229C109.934 683.485 95.8185 671.402 81.8081 659.32C66.7579 646.342 53.8295 631.222 42.3203 615.102C30.0468 597.911 19.4572 579.62 13.1101 559.257C10.1736 549.836 8.24059 540.072 4.84136 530.836C1.87742 522.782 0.0561771 505.293 0.0561771 505.293C0.0293561 443.655 0.014679 382.941 0 322.227C0.036016 293.399 0.09733 264.571 0.102808 235.743C0.114361 174.92 0.100565 114.096 0.0890026 53.2717C0.0846996 30.6398 15.7306 10.0058 37.4979 3.13331C61.2403 -4.36286 80.6265 2.25425 96.8999 20.2592C108.111 32.6635 119.661 44.773 130.581 57.427C144.273 73.2936 157.434 89.618 170.905 105.677C180.15 116.697 189.618 127.529 198.834 138.572C215.388 158.408 231.741 178.411 248.342 198.207C261.249 213.598 274.485 228.713 287.422 244.079C296.647 255.036 305.566 266.251 314.721 277.267C321.897 285.902 329.177 294.453 336.592 302.881C337.109 303.47 339.693 303.255 340.365 302.531C345.61 296.876 350.696 291.066 355.688 285.183C362.197 277.511 368.472 269.639 375.026 262.007C394.161 239.726 413.414 217.546 432.565 195.28C447.718 177.662 462.791 159.976 477.898 142.32C490.564 127.515 503.213 112.695 515.9 97.9089C525.123 87.1607 534.436 76.4895 543.635 65.7211C551.346 56.6941 558.609 47.2562 566.708 38.5961C573.645 31.1774 582.031 25.0648 592.127 22.9545C604.36 20.3974 617.129 19.77 629.028 23.6892C639.584 27.1663 648.508 34.2453 655.859 42.8258C666.368 55.0922 676.751 67.4672 687.195 79.7894C699.358 94.1393 711.477 108.526 723.712 122.815C733.705 134.485 743.941 145.949 753.882 157.664C763.14 168.573 772.051 179.775 781.296 190.695C790.578 201.657 800.101 212.416 809.488 223.291C816.393 231.291 823.243 239.339 830.127 247.357C843.305 262.707 856.484 278.057 869.677 293.393C872.249 296.382 875.068 299.176 877.446 302.308C879.424 304.912 880.559 304.298 882.36 302.125C894.462 287.515 906.647 272.975 918.859 258.456C930.429 244.699 942.053 230.987 953.673 217.272C967.716 200.698 981.876 184.222 995.811 167.558C1012.09 148.087 1028.09 128.377 1044.4 108.926C1057.78 92.9683 1071.46 77.2654 1084.94 61.3979C1094.47 50.1944 1103.44 38.4858 1113.49 27.783C1121.8 18.9352 1129.93 9.76482 1141.77 4.77511C1156.19 -1.30383 1170.3 -1.77369 1184.49 4.49187C1207.14 14.4937 1218.14 32.0979 1218.13 56.8396C1218.1 144.992 1218.14 233.145 1218.17 322.231C1218.2 383.879 1218.23 505.306 1218.23 505.306C1218.23 505.306 1215.77 520.407 1213.64 529.97C1211.87 537.879 1211.04 543.692 1208.54 550.082C1203.07 564.057 1197.33 577.995 1190.61 591.402C1181.28 610.029 1168.49 626.441 1154.13 641.428C1143.66 652.353 1132.35 662.5 1121.11 672.663C1101.97 689.969 1080.16 703.611 1058.05 716.598C1042.78 725.569 1026.58 732.972 1010.74 740.983C1005.03 743.875 999.287 746.774 993.361 749.184C981 754.212 968.658 759.363 956.03 763.642C940.164 769.017 924.081 773.78 907.978 778.413C893.113 782.69 878.127 786.563 863.137 790.392C853.068 792.964 842.942 795.358 832.765 797.457C816.482 800.815 800.198 804.254 783.792 806.905C772.707 808.696 761.397 809.057 750.217 810.322C744.035 811.022 737.929 812.377 731.76 813.231C726.037 814.023 720.289 814.698 714.53 815.145C703.968 815.963 693.397 816.761 682.815 817.232C664.25 818.058 645.673 818.63 626.167 819.315C614.173 819.337 603.113 819.353 592.054 819.369ZM532.541 248.195C523.487 258.86 514.44 269.531 505.377 280.189C496.639 290.466 487.891 300.735 479.136 310.998C465.32 327.192 451.484 343.37 437.676 359.572C429.763 368.857 422.081 378.35 413.894 387.386C410.891 390.7 412.081 392.873 414.21 395.419C423.842 406.935 433.473 418.452 443.169 429.915C452.245 440.644 461.489 451.233 470.499 462.017C480.232 473.667 489.687 485.55 499.439 497.185C507.239 506.491 515.401 515.494 523.226 524.781C534.393 538.035 545.336 551.48 556.495 564.743C565.401 575.328 574.581 585.684 583.466 596.287C592.077 606.563 601.896 612.61 616.065 608.461C622.949 606.445 628.939 603.579 633.542 598.082C650.251 578.126 666.914 558.133 683.64 538.191C692.732 527.35 701.925 516.593 711.053 505.782C716.269 499.604 721.429 493.378 726.646 487.201C732.179 480.651 737.79 474.166 743.298 467.594C756.466 451.882 769.563 436.11 782.75 420.414C789.747 412.087 796.939 403.924 803.898 395.565C805.849 393.222 807.909 390.894 804.422 387.547C800.037 383.338 796.315 378.431 792.376 373.766C782.146 361.65 772.017 349.448 761.727 337.383C752.829 326.951 743.696 316.72 734.792 306.294C721.886 291.182 709.09 275.976 696.252 260.806C689.418 252.731 682.582 244.658 675.769 236.565C667.386 226.606 659.089 216.573 650.639 206.671C641.645 196.13 632.523 185.699 623.441 175.233C618.82 169.909 614.165 164.614 609.207 158.94C607.286 161.024 605.806 162.526 604.443 164.127C596.401 173.564 588.452 183.081 580.345 192.462C572.163 201.93 563.742 211.193 555.593 220.69C547.96 229.587 540.546 238.673 532.541 248.195Z" fill="white"/>
</svg>
